<svg id="visual" viewBox="0 0 900 600" width="900" height="600" xmlns="http://www.w3.org/2000/svg" xmlns:xlink="http://www.w3.org/1999/xlink" version="1.1"><rect x="0" y="0" width="900" height="600" fill="#87c9ff"></rect><path d="M0 360L21.5 364.5C43 369 86 378 128.8 388.7C171.7 399.3 214.3 411.7 257.2 409.2C300 406.7 343 389.3 385.8 382.3C428.7 375.3 471.3 378.7 514.2 377.3C557 376 600 370 642.8 372.3C685.7 374.7 728.3 385.3 771.2 392.7C814 400 857 404 878.5 406L900 408L900 601L878.5 601C857 601 814 601 771.2 601C728.3 601 685.7 601 642.8 601C600 601 557 601 514.2 601C471.3 601 428.7 601 385.8 601C343 601 300 601 257.2 601C214.3 601 171.7 601 128.8 601C86 601 43 601 21.5 601L0 601Z" fill="#5788d0"></path><path d="M0 469L21.5 471.3C43 473.7 86 478.3 128.8 473.2C171.7 468 214.3 453 257.2 457.3C300 461.7 343 485.3 385.8 485.8C428.7 486.3 471.3 463.7 514.2 459.2C557 454.7 600 468.3 642.8 476.5C685.7 484.7 728.3 487.3 771.2 491.2C814 495 857 500 878.5 502.5L900 505L900 601L878.5 601C857 601 814 601 771.2 601C728.3 601 685.7 601 642.8 601C600 601 557 601 514.2 601C471.3 601 428.7 601 385.8 601C343 601 300 601 257.2 601C214.3 601 171.7 601 128.8 601C86 601 43 601 21.5 601L0 601Z" fill="#4f6ac1"></path><path d="M0 520L21.5 514.8C43 509.7 86 499.3 128.8 505C171.7 510.7 214.3 532.3 257.2 536.8C300 541.3 343 528.7 385.8 517.5C428.7 506.3 471.3 496.7 514.2 499.8C557 503 600 519 642.8 528.7C685.7 538.3 728.3 541.7 771.2 540.7C814 539.7 857 534.3 878.5 531.7L900 529L900 601L878.5 601C857 601 814 601 771.2 601C728.3 601 685.7 601 642.8 601C600 601 557 601 514.2 601C471.3 601 428.7 601 385.8 601C343 601 300 601 257.2 601C214.3 601 171.7 601 128.8 601C86 601 43 601 21.5 601L0 601Z" fill="#534aad"></path></svg>